<svg xmlns="http://www.w3.org/2000/svg" viewBox="0 0 192 192" width="192" height="192">
  <defs>
    <linearGradient id="bg" x1="0%" y1="0%" x2="100%" y2="100%">
      <stop offset="0%" style="stop-color:#e84b7a"/>
      <stop offset="100%" style="stop-color:#d63384"/>
    </linearGradient>
  </defs>
  <rect width="192" height="192" rx="40" fill="url(#bg)"/>
  <!-- Nail polish bottle -->
  <rect x="80" y="30" width="32" height="18" rx="4" fill="rgba(255,255,255,0.9)"/>
  <rect x="90" y="20" width="12" height="14" rx="2" fill="rgba(255,255,255,0.7)"/>
  <rect x="72" y="48" width="48" height="80" rx="12" fill="white"/>
  <rect x="80" y="56" width="32" height="40" rx="6" fill="rgba(232,75,122,0.3)"/>
  <!-- Sparkles -->
  <circle cx="140" cy="50" r="4" fill="rgba(255,255,255,0.8)"/>
  <circle cx="150" cy="70" r="2.5" fill="rgba(255,255,255,0.6)"/>
  <circle cx="50" cy="60" r="3" fill="rgba(255,255,255,0.7)"/>
  <!-- Calendar hint -->
  <rect x="58" y="130" width="76" height="42" rx="8" fill="rgba(255,255,255,0.25)"/>
  <line x1="58" y1="142" x2="134" y2="142" stroke="rgba(255,255,255,0.4)" stroke-width="1.5"/>
  <rect x="66" y="147" width="8" height="8" rx="2" fill="rgba(255,255,255,0.5)"/>
  <rect x="80" y="147" width="8" height="8" rx="2" fill="rgba(255,255,255,0.5)"/>
  <rect x="94" y="147" width="8" height="8" rx="2" fill="white"/>
  <rect x="108" y="147" width="8" height="8" rx="2" fill="rgba(255,255,255,0.5)"/>
  <rect x="122" y="147" width="8" height="8" rx="2" fill="rgba(255,255,255,0.5)"/>
  <rect x="66" y="159" width="8" height="8" rx="2" fill="rgba(255,255,255,0.5)"/>
  <rect x="80" y="159" width="8" height="8" rx="2" fill="rgba(255,255,255,0.5)"/>
</svg>
